<svg xmlns="http://www.w3.org/2000/svg" width="1957.97" height="2304.03" viewBox="0 0 1957.97 2304.03">
  <defs>
    <style>
      .cls-1 {
        fill: #fffcff;
        fill-rule: evenodd;
      }
    </style>
  </defs>
  <path fill="white" class="cls-1" d="M1720.46,3663.41c-73.64,47.2-298.73,251.18-313.17,373.61,0,33.83,1.55,476.19,1.55,508.48,0,28.42-12.88,85.38-66.74,99.17-8,1.5-17.38.89-24.65,0-53.92-13.77-65.19-73.85-65.19-102.27,0-32.29-1.55-471.56-1.55-505.38-14.45-122.4-238.25-326.19-311.955-373.38-16.818-33.74-12.44-62.3,6.208-85.24,108.657-54.63,269.167-148.7,336.707-356.47,9.62-14.57,24.65-22.96,43.45-23.55v-0.04c23.15-2.26,41.57,6.35,52.72,23.25,67.48,207.83,227.85,301.92,336.42,356.56C1732.89,3601.09,1737.27,3629.66,1720.46,3663.41Zm569.27,541.85c-66.35,21.08-281.49,131.45-317.84,222.58-6.98,26.01-103.76,391.39-110.42,416.22-5.87,21.84-27.53,62.97-71.77,62.46-6.46-.5-13.55-2.9-18.96-5.08-38.61-21.71-34.88-70.22-29.02-92.07,6.66-24.82,102.81-387.83,109.79-413.83,14.14-97.07-115.87-299.89-162.8-351.37-5.97-29.41,3.29-50.46,22.35-64.25,94.81-19.57,237.62-58.77,332.4-204.56,10.4-9.21,23.69-12.56,38.27-9.13,0-.01.01-0.02,0.01-0.03,18.26,3.04,30.64,13.46,35.73,28.74,9,173.68,112.89,279.09,185.08,343.49C2312.15,4159.91,2309.61,4182.78,2289.73,4205.26Zm-1921.493-.97c66.418,21.07,281.751,131.38,318.139,222.46,6.986,25.99,103.859,391.17,110.527,415.99,5.869,21.83,27.548,62.94,71.834,62.42,6.47-.49,13.561-2.89,18.977-5.08,38.644-21.69,34.913-70.18,29.045-92.01-6.667-24.81-102.9-387.62-109.887-413.61-14.157-97.01,115.978-299.72,162.953-351.17,5.974-29.39-3.293-50.44-22.379-64.21-94.9-19.57-237.834-58.75-332.709-204.45-10.411-9.21-23.711-12.55-38.3-9.13,0-.01,0-0.02-0.008-0.03-18.279,3.04-30.67,13.45-35.76,28.73-9.014,173.58-113,278.94-185.261,343.3C345.8,4158.97,348.335,4181.82,368.237,4204.29ZM1639.25,4725.73c-58.46,37.45-237.13,199.34-248.58,296.5,0,26.84,1.23,374.71,1.23,400.34,0,22.55-10.23,67.76-52.98,78.7-6.35,1.19-13.8.71-19.57,0-42.8-10.92-51.75-58.61-51.75-81.16,0-25.62-1.23-371.04-1.23-397.88-11.47-97.14-189.11-258.87-247.62-296.32-13.35-26.78-9.87-49.45,4.93-67.65,36.78-18.49,76.4-39.57,119.23-74.01q3.435-2.76,6.86-5.63c21.86-13.16,52.5-23.64,76.13-.56,27.52,38.91,5.66,62.55-7.75,75.96s-15.48,18.8-26.36,31c-9.59,13.67-4.01,25.03,4.65,34.11,8.67,10.18,93.19,88.76,99.23,96.11,5.71,4.56,11.01,8.83,15.45,11.09,0,0,3.45,3.02,17.88,2.51,14.43,0.51,17.88-2.51,17.88-2.51,4.44-2.26,9.74-6.53,15.45-11.09,6.04-7.35,90.56-85.93,99.23-96.11,8.66-9.08,14.24-20.44,4.65-34.11-10.88-12.2-12.95-17.6-26.36-31s-35.27-37.05-7.75-75.96c24.15-23.59,55.62-12.12,77.56,1.44,44.51,36.87,86.33,59.27,124.67,78.56C1649.12,4676.27,1652.59,4698.94,1639.25,4725.73Z" transform="translate(-350 -3197.97)"/>
</svg>
